<svg xmlns="http://www.w3.org/2000/svg" xmlns:xlink="http://www.w3.org/1999/xlink" viewBox="109.13300323486328 20.267000198364258 170.53399658203125 153.55422973632812" width="222.11566151562158" height="200"><path d="M 124.800,126.600 C 125.899,118.337 125.867,118.333 126.933,110.067" stroke-width="4.831" stroke="white" fill="none" stroke-linecap="round"></path><path d="M 126.933,110.067 C 127.450,103.355 127.766,103.404 128.533,96.733" stroke-width="3.437" stroke="white" fill="none" stroke-linecap="round"></path><path d="M 128.533,96.733 C 130.069,88.720 129.850,88.688 131.733,80.733" stroke-width="2.953" stroke="white" fill="none" stroke-linecap="round"></path><path d="M 131.733,80.733 C 133.981,69.498 134.069,69.520 136.533,58.333" stroke-width="2.540" stroke="white" fill="none" stroke-linecap="round"></path><path d="M 136.533,58.333 C 138.439,50.876 138.248,50.831 140.267,43.400" stroke-width="2.912" stroke="white" fill="none" stroke-linecap="round"></path><path d="M 140.267,43.400 C 141.521,32.751 141.372,38.876 142.400,34.333" stroke-width="3.334" stroke="white" fill="none" stroke-linecap="round"></path><path d="M 142.400,34.333 C 143.866,43.691 144.188,37.551 145.600,53.000" stroke-width="3.809" stroke="white" fill="none" stroke-linecap="round"></path><path d="M 145.600,53.000 C 147.738,71.252 148.933,70.891 152.533,88.733" stroke-width="2.782" stroke="white" fill="none" stroke-linecap="round"></path><path d="M 152.533,88.733 C 156.793,101.250 156.004,101.386 162.133,113.267" stroke-width="2.287" stroke="white" fill="none" stroke-linecap="round"></path><path d="M 162.133,113.267 C 165.513,120.418 165.326,120.450 169.600,127.133" stroke-width="2.696" stroke="white" fill="none" stroke-linecap="round"></path><path d="M 169.600,127.133 C 173.412,132.414 172.979,132.685 177.067,137.800" stroke-width="3.021" stroke="white" fill="none" stroke-linecap="round"></path><path d="M 177.067,137.800 C 180.421,142.668 178.479,139.881 179.733,142.067" stroke-width="3.767" stroke="white" fill="none" stroke-linecap="round"></path><path d="M 179.733,142.067 C 176.092,138.208 178.287,140.801 172.800,134.067" stroke-width="4.340" stroke="white" fill="none" stroke-linecap="round"></path><path d="M 172.800,134.067 C 168.261,127.452 167.825,127.808 163.200,121.267" stroke-width="3.144" stroke="white" fill="none" stroke-linecap="round"></path><path d="M 163.200,121.267 C 158.472,115.867 158.661,115.719 153.600,110.600" stroke-width="3.017" stroke="white" fill="none" stroke-linecap="round"></path><path d="M 153.600,110.600 C 148.837,104.945 148.605,105.200 143.467,99.933" stroke-width="3.016" stroke="white" fill="none" stroke-linecap="round"></path><path d="M 143.467,99.933 C 136.823,93.662 136.837,93.745 129.600,88.200" stroke-width="2.738" stroke="white" fill="none" stroke-linecap="round"></path><path d="M 129.600,88.200 C 125.891,84.880 125.890,85.395 121.600,83.400" stroke-width="3.262" stroke="white" fill="none" stroke-linecap="round"></path><path d="M 121.600,83.400 C 113.403,83.597 118.157,82.213 114.133,82.867" stroke-width="3.687" stroke="white" fill="none" stroke-linecap="round"></path><path d="M 114.133,82.867 C 119.738,81.283 115.270,81.730 125.333,79.667" stroke-width="4.384" stroke="white" fill="none" stroke-linecap="round"></path><path d="M 125.333,79.667 C 131.729,77.784 131.738,77.816 138.133,75.933" stroke-width="3.443" stroke="white" fill="none" stroke-linecap="round"></path><path d="M 138.133,75.933 C 143.667,74.051 143.729,74.317 149.333,72.733" stroke-width="3.369" stroke="white" fill="none" stroke-linecap="round"></path><path d="M 149.333,72.733 C 155.152,71.229 155.134,71.384 161.067,70.600" stroke-width="3.265" stroke="white" fill="none" stroke-linecap="round"></path><path d="M 161.067,70.600 C 167.758,69.892 167.685,69.896 174.400,70.067" stroke-width="3.241" stroke="white" fill="none" stroke-linecap="round"></path><path d="M 174.400,70.067 C 178.290,69.764 177.892,70.159 181.333,71.133" stroke-width="3.682" stroke="white" fill="none" stroke-linecap="round"></path><path d="M 181.333,71.133 C 184.404,72.501 183.624,72.164 185.067,74.867" stroke-width="4.049" stroke="white" fill="none" stroke-linecap="round"></path><path d="M 185.067,74.867 C 185.580,79.720 186.271,79.168 185.067,84.467" stroke-width="3.660" stroke="white" fill="none" stroke-linecap="round"></path><path d="M 185.067,84.467 C 183.880,89.511 184.513,89.587 182.933,94.600" stroke-width="3.597" stroke="white" fill="none" stroke-linecap="round"></path><path d="M 182.933,94.600 C 182.038,101.036 181.747,100.977 180.800,107.400" stroke-width="3.239" stroke="white" fill="none" stroke-linecap="round"></path><path d="M 180.800,107.400 C 179.623,110.554 180.171,110.636 179.200,113.800" stroke-width="3.768" stroke="white" fill="none" stroke-linecap="round"></path><path d="M 179.200,113.800 C 178.195,120.306 178.823,116.687 179.200,119.667" stroke-width="3.957" stroke="white" fill="none" stroke-linecap="round"></path><path d="M 179.200,119.667 C 183.209,115.268 181.128,118.440 185.067,110.067" stroke-width="4.359" stroke="white" fill="none" stroke-linecap="round"></path><path d="M 185.067,110.067 C 186.232,103.682 187.209,104.068 187.200,97.267" stroke-width="3.469" stroke="white" fill="none" stroke-linecap="round"></path><path d="M 187.200,97.267 C 188.459,89.556 188.365,89.548 189.333,81.800" stroke-width="3.075" stroke="white" fill="none" stroke-linecap="round"></path><path d="M 189.333,81.800 C 190.545,70.612 190.593,70.622 191.467,59.400" stroke-width="2.586" stroke="white" fill="none" stroke-linecap="round"></path><path d="M 191.467,59.400 C 192.017,51.134 192.145,51.145 192.533,42.867" stroke-width="2.708" stroke="white" fill="none" stroke-linecap="round"></path><path d="M 192.533,42.867 C 193.243,24.315 193.083,34.068 193.600,25.267" stroke-width="2.745" stroke="white" fill="none" stroke-linecap="round"></path><path d="M 193.600,25.267 C 193.857,36.200 194.043,26.448 194.133,47.133" stroke-width="3.443" stroke="white" fill="none" stroke-linecap="round"></path><path d="M 194.133,47.133 C 194.079,57.284 194.390,57.267 194.667,67.400" stroke-width="2.708" stroke="white" fill="none" stroke-linecap="round"></path><path d="M 194.667,67.400 C 195.438,80.234 195.412,80.218 196.800,93.000" stroke-width="2.363" stroke="white" fill="none" stroke-linecap="round"></path><path d="M 196.800,93.000 C 197.414,100.308 197.572,100.234 198.933,107.400" stroke-width="2.742" stroke="white" fill="none" stroke-linecap="round"></path><path d="M 198.933,107.400 C 199.298,112.177 199.814,111.508 201.600,115.400" stroke-width="3.383" stroke="white" fill="none" stroke-linecap="round"></path><path d="M 201.600,115.400 C 204.877,119.243 203.298,117.777 206.933,118.600" stroke-width="4.262" stroke="white" fill="none" stroke-linecap="round"></path><path d="M 206.933,118.600 C 208.377,115.570 209.143,117.909 210.133,112.733" stroke-width="4.052" stroke="white" fill="none" stroke-linecap="round"></path><path d="M 210.133,112.733 C 211.661,109.744 211.844,109.970 213.867,107.400" stroke-width="4.063" stroke="white" fill="none" stroke-linecap="round"></path><path d="M 213.867,107.400 C 215.991,105.004 215.927,105.211 218.667,103.667" stroke-width="4.072" stroke="white" fill="none" stroke-linecap="round"></path><path d="M 218.667,103.667 C 222.074,101.651 221.858,102.071 225.600,101.533" stroke-width="3.929" stroke="white" fill="none" stroke-linecap="round"></path><path d="M 225.600,101.533 C 230.739,101.248 230.074,101.384 234.667,103.133" stroke-width="4.264" stroke="white" fill="none" stroke-linecap="round"></path><path d="M 234.667,103.133 C 238.792,105.526 237.406,104.448 238.933,107.933" stroke-width="4.581" stroke="white" fill="none" stroke-linecap="round"></path><path d="M 238.933,107.933 C 237.637,111.140 239.058,110.059 235.200,112.200" stroke-width="4.732" stroke="white" fill="none" stroke-linecap="round"></path><path d="M 235.200,112.200 C 230.945,113.129 231.504,113.807 226.667,113.267" stroke-width="3.987" stroke="white" fill="none" stroke-linecap="round"></path><path d="M 226.667,113.267 C 222.649,113.160 222.678,113.395 218.667,112.733" stroke-width="3.816" stroke="white" fill="none" stroke-linecap="round"></path><path d="M 218.667,112.733 C 215.142,112.453 215.182,112.360 211.733,111.667" stroke-width="3.931" stroke="white" fill="none" stroke-linecap="round"></path><path d="M 211.733,111.667 C 204.942,110.100 208.209,110.853 204.800,109.533" stroke-width="3.832" stroke="white" fill="none" stroke-linecap="round"></path><path d="M 204.800,109.533 C 208.002,109.618 204.675,109.033 211.200,109.533" stroke-width="4.567" stroke="white" fill="none" stroke-linecap="round"></path><path d="M 211.200,109.533 C 218.142,109.415 218.135,109.351 225.067,109.000" stroke-width="3.355" stroke="white" fill="none" stroke-linecap="round"></path><path d="M 225.067,109.000 C 231.465,108.445 231.476,108.615 237.867,107.933" stroke-width="3.248" stroke="white" fill="none" stroke-linecap="round"></path><path d="M 237.867,107.933 C 244.809,107.496 244.798,107.379 251.733,106.867" stroke-width="3.077" stroke="white" fill="none" stroke-linecap="round"></path><path d="M 251.733,106.867 C 259.453,105.807 259.475,106.163 267.200,105.267" stroke-width="2.916" stroke="white" fill="none" stroke-linecap="round"></path><path d="M 267.200,105.267 C 275.390,104.543 270.920,105.007 274.667,105.267" stroke-width="3.547" stroke="white" fill="none" stroke-linecap="round"></path><path d="M 274.667,105.267 C 269.249,108.087 273.523,106.410 263.467,109.000" stroke-width="4.162" stroke="white" fill="none" stroke-linecap="round"></path><path d="M 263.467,109.000 C 253.872,109.655 254.049,110.487 244.267,110.067" stroke-width="2.965" stroke="white" fill="none" stroke-linecap="round"></path><path d="M 244.267,110.067 C 235.198,110.276 235.205,110.455 226.133,110.600" stroke-width="2.727" stroke="white" fill="none" stroke-linecap="round"></path><path d="M 226.133,110.600 C 212.803,111.217 212.798,111.076 199.467,111.667" stroke-width="2.262" stroke="white" fill="none" stroke-linecap="round"></path><path d="M 199.467,111.667 C 189.036,111.499 189.069,112.017 178.667,112.200" stroke-width="2.443" stroke="white" fill="none" stroke-linecap="round"></path><path d="M 178.667,112.200 C 169.291,112.971 169.303,112.833 160.000,114.333" stroke-width="2.542" stroke="white" fill="none" stroke-linecap="round"></path><path d="M 160.000,114.333 C 149.311,116.082 149.291,115.904 138.667,118.067" stroke-width="2.494" stroke="white" fill="none" stroke-linecap="round"></path><path d="M 138.667,118.067 C 133.487,118.785 133.577,119.016 128.533,120.200" stroke-width="3.074" stroke="white" fill="none" stroke-linecap="round"></path><path d="M 128.533,120.200 C 123.112,121.505 126.021,120.918 123.733,122.333" stroke-width="3.839" stroke="white" fill="none" stroke-linecap="round"></path><path d="M 123.733,122.333 C 127.639,124.118 124.712,123.639 131.733,124.467" stroke-width="4.277" stroke="white" fill="none" stroke-linecap="round"></path><path d="M 131.733,124.467 C 140.269,124.602 140.173,125.185 148.800,124.467" stroke-width="2.888" stroke="white" fill="none" stroke-linecap="round"></path><path d="M 148.800,124.467 C 157.070,124.273 157.069,124.335 165.333,123.933" stroke-width="2.862" stroke="white" fill="none" stroke-linecap="round"></path><path d="M 165.333,123.933 C 176.540,122.867 176.536,123.473 187.733,122.867" stroke-width="2.542" stroke="white" fill="none" stroke-linecap="round"></path><path d="M 187.733,122.867 C 195.007,122.939 194.940,122.867 202.133,123.933" stroke-width="2.819" stroke="white" fill="none" stroke-linecap="round"></path><path d="M 202.133,123.933 C 208.135,123.535 206.474,124.539 210.667,126.067" stroke-width="3.341" stroke="white" fill="none" stroke-linecap="round"></path><path d="M 210.667,126.067 C 212.358,129.948 212.668,128.068 211.200,133.000" stroke-width="3.727" stroke="white" fill="none" stroke-linecap="round"></path><path d="M 211.200,133.000 C 208.456,137.679 209.424,137.681 204.800,141.533" stroke-width="3.533" stroke="white" fill="none" stroke-linecap="round"></path><path d="M 204.800,141.533 C 198.029,147.558 198.590,148.079 191.467,153.800" stroke-width="2.855" stroke="white" fill="none" stroke-linecap="round"></path><path d="M 191.467,153.800 C 186.782,157.751 187.096,157.958 182.933,162.333" stroke-width="3.092" stroke="white" fill="none" stroke-linecap="round"></path><path d="M 182.933,162.333 C 179.263,165.795 181.182,164.418 180.267,167.133" stroke-width="3.822" stroke="white" fill="none" stroke-linecap="round"></path><path d="M 180.267,167.133 C 184.000,168.733 181.663,168.995 187.733,168.733" stroke-width="3.863" stroke="white" fill="none" stroke-linecap="round"></path></svg>